<?xml version="1.0" encoding="utf-8"?>
<!-- Generator: Adobe Illustrator 18.1.1, SVG Export Plug-In . SVG Version: 6.00 Build 0)  -->
<svg version="1.1" id="Layer_1" xmlns="http://www.w3.org/2000/svg" xmlns:xlink="http://www.w3.org/1999/xlink" x="0px" y="0px"
	 viewBox="0 0 400 580" enable-background="new 0 0 400 580" xml:space="preserve">
<path fill="#CB3366" d="M368.8,217.9c-4.6,0-8.5,2.3-10.8,5.9L199.9,427.1v0.1l-0.1-0.1l0,0v-0.2l0,0l-0.1,0.1v-0.1L41.6,223.6
	c-2.3-3.5-6.3-5.9-10.8-5.9h-23v83.8l0,0v-98C7.8,97.7,93.4,12,199.1,12h0.2h1.2h0.2c105.6,0,191.3,85.7,191.3,191.4v14.4H368.8z"/>
<path fill="#B2345B" d="M144.3,275.7l51.8,66.8h0.1c0.8,0.9,2,1.5,3.3,1.5l0,0c1.3,0,2.5-0.6,3.3-1.5h0.1l51.8-66.8v80.1L200,426.1
	l-0.3-0.3l0,0v0.1l0,0l-0.3,0.3l-55.2-70.9L144.3,275.7L144.3,275.7z M199.8,426.5L199.8,426.5L199.8,426.5L199.8,426.5L199.8,426.5
	L199.8,426.5L199.8,426.5l-0.3-0.3h0.6L199.8,426.5z"/>
<path fill="#BF3C65" d="M199.6,236.5l-50.9-66l50.9-65.4l0.3,0.3l0,0v0.1l0,0l0.3-0.3l50.6,65L199.6,236.5z M199.8,104.8
	L199.8,104.8L199.8,104.8L199.8,104.8L199.8,104.8L199.8,104.8L199.8,104.8l0.3,0.3h-0.6L199.8,104.8z"/>
<path fill="#CF406E" d="M199.8,105.5L199.8,105.5L199.8,105.5l-0.3-0.4l0.2-0.3v-0.1l0.1,0.1l0,0l0,0l0.1-0.1v0.1l0.2,0.3
	L199.8,105.5L199.8,105.5z M41.6,223c-2.3-3.5-6.3-5.9-10.8-5.9h-23v-13.7c0-70.6,38.2-132.3,95-165.5c31.5,0.8,59.3,16.8,76.2,40.9
	h0.1l20.4,26.3L74.7,265.5L41.6,223z M220.5,78.9h0.1c17-24.2,44.7-40.1,76.2-40.9c56.9,33.2,95,94.9,95,165.5v13.8h-23
	c-4.6,0-8.5,2.3-10.8,5.9l-33,42.4L200.1,105.2L220.5,78.9z"/>
<path fill="#D8517D" d="M297.4,38.4c1.4,0.9,2.9,1.7,4.3,2.6C300.3,40.1,298.9,39.2,297.4,38.4z M220.6,78.9h-0.1l-20.4,26.2
	l-0.2-0.3v-0.1l-0.1,0.1l0,0l0,0l-0.1-0.1v0.1l-0.2,0.3l-20.4-26.2H179c-16.9-24.1-44.7-40.1-76.2-40.9c28.3-16.5,61.1-26,96.2-26
	h0.2h1.2h0.2c35.1,0,68,9.5,96.2,26C265.3,38.8,237.6,54.8,220.6,78.9z M199.9,105.4l0.2-0.2l0.2,0.2H199.9z M199.3,105.4l0.2-0.2
	l0.2,0.2H199.3z M102.2,38.4c-1.4,0.9-2.9,1.7-4.3,2.6C99.3,40.1,100.7,39.2,102.2,38.4z M102.8,38L102.8,38
	c-0.2,0.1-0.4,0.2-0.6,0.3C102.4,38.2,102.6,38.1,102.8,38z M296.8,38c0.2,0.1,0.4,0.2,0.6,0.3C297.2,38.2,297,38.1,296.8,38
	L296.8,38z"/>
<path fill="#4B3785" d="M7.8,217.2h23c4.6,0,8.5,2.3,10.8,5.9l158.1,203.3v0.1l0.1-0.1l0,0v0.2l0,0l0.1,0.1v-0.1L358,223.2
	c2.3-3.5,6.3-5.9,10.8-5.9h23v84.2c0,4.6-1.6,8.7-4.2,12.1l0,0l-184.4,254c0,0-0.9,1.4-3.4,1.5l0,0c0,0,0,0-0.1,0c0,0,0,0-0.1,0l0,0
	c-2.5-0.1-3.4-1.5-3.4-1.5l-184.4-254l0,0c-2.6-3.3-4.2-7.5-4.2-12.1V217.2z"/>
<path fill="none" d="M387.3,314h-18.5c-4.6,0-8.5-2.3-10.8-5.9l-33-42.5l33-42.5c2.3-3.5,6.3-5.9,10.8-5.9h23v84.2
	c0,4.6-1.6,8.7-4.2,12.1l0,0 M41.6,308.1c-2.3,3.5-6.3,5.9-10.8,5.9H12.3l7.7,10.6l-8-11l0,0c-2.6-3.3-4.2-7.5-4.2-12.1v-84.4h23
	c4.6,0,8.5,2.3,10.8,5.9l33.1,42.6L41.6,308.1z"/>
<path fill="#664C9E" d="M387.3,314h-18.5c-4.6,0-8.5-2.3-10.8-5.9l-33-42.5l33-42.5c2.3-3.5,6.3-5.9,10.8-5.9h23v84.2
	c0,4.6-1.6,8.7-4.2,12.1l0,0 M41.6,308.1c-2.3,3.5-6.3,5.9-10.8,5.9H12.3l7.7,10.6l-8-11l0,0c-2.6-3.3-4.2-7.5-4.2-12.1v-84.4h23
	c4.6,0,8.5,2.3,10.8,5.9l33.1,42.6L41.6,308.1z"/>
<path fill="none" d="M254.6,496.1l-54.9-70.5l-54.8,70.5H254.6z"/>
<path fill="#42307C" d="M254.9,495.8l-51.7,71.2c0,0-0.9,1.4-3.4,1.5l0,0c0,0,0,0-0.1,0c0,0,0,0-0.1,0l0,0c-2.5-0.1-3.4-1.5-3.4-1.5
	l-51.7-71.2H254.9z"/>
<path fill="#45327E" d="M144.3,355l55.5,71.3L145,496.7l-0.6-0.9L144.3,355L144.3,355z M254.8,496L254.8,496v0.6l-0.1,0.1
	l-54.7-70.3l54.8-70.5L254.8,496L254.8,496z"/>
<path fill="#584094" d="M324.9,399.9V265.7l33,42.4c2.3,3.5,6.3,5.9,10.8,5.9h18.5L324.9,399.9z M74.1,399.1L12.3,314h18.5
	c4.6,0,8.5-2.3,10.8-5.9l32.5-41.7L74.1,399.1L74.1,399.1z"/>
<path fill="#FFFFFF" d="M349.2,157.4L349.2,157.4l-24,35.8h-0.2v209c0,1.3-0.6,2.5-1.5,3.3v0.3L260,493.4h-0.1c-1,1.8-2.9,3-5.2,3
	v-11.9l0,0V275.7L203,342.5h-0.1c-0.8,0.9-2,1.5-3.3,1.5l0,0c-1.3,0-2.5-0.6-3.3-1.5h-0.1l-51.8-66.8v208.6l0,0v11.9
	c-2.2,0-4.2-1.2-5.2-3h-0.1l-63.4-87.6v-0.3c-0.9-0.8-1.5-2-1.5-3.3V193.2H74l-24.1-35.8h0.1c-0.7-1.1-1.2-2.4-1.2-3.8
	c0-3.6,2.9-6.6,6.5-6.7l0,0h72.6v0.1c2,0.2,3.7,1.3,4.7,2.8l66.9,86.7l66.9-86.7c1.1-1.6,2.8-2.6,4.7-2.8v-0.1h72.6l0,0
	c3.6,0.1,6.5,3.1,6.5,6.7C350.3,155.1,349.9,156.4,349.2,157.4z"/>
</svg>
