<?xml version="1.0" encoding="utf-8"?>
<!-- Generator: Adobe Illustrator 18.1.1, SVG Export Plug-In . SVG Version: 6.00 Build 0)  -->
<svg version="1.1" id="Layer_1" xmlns="http://www.w3.org/2000/svg" xmlns:xlink="http://www.w3.org/1999/xlink" x="0px" y="0px"
	 viewBox="0 0 1424 580" enable-background="new 0 0 1424 580" xml:space="preserve">
<path fill="#48444B" d="M569.1,327.5c3.9,0,8-3.1,9.4-6.9l26.9-75.3v74.8c0,4.1,3.1,7.4,7.2,7.4h13.8c4.1,0,7.2-3.3,7.2-7.4V225
	c0-4.1-3.1-7.4-7-7.4h-31.1c-4.1,0-8,3.3-9.2,7.2l-22.5,65.4l-22.5-65.4c-1.3-3.9-5.2-7.2-9.2-7.2h-31.1c-3.9,0-7,3.3-7,7.4v95.1
	c0,4.1,3.1,7.4,7.2,7.4h13.8c4.1,0,7.2-3.3,7.2-7.4v-74.8l26.9,75.3c1.4,3.8,5.5,6.9,9.4,6.9H569.1z"/>
<path fill="#48444B" d="M647.2,320.4c-1.1,3.9,1.3,7.1,5.3,7.1h15c4.1,0,8-3.1,9.1-7.2l5.2-19.3h54.3v19.3c0,4.1,3.1,7.2,7.2,7.2
	h14.4c3.9,0,7.2-3.1,7.2-7.1v-95.7c0-3.8-2.8-7.1-6.6-7.1h-41.2c-22.2,0-44.3,5.5-50.7,29.8L647.2,320.4z M694.1,254.7
	c2.5-9.4,10.3-15.4,20.2-15.4h21.8v40h-48.7L694.1,254.7z"/>
<path fill="#48444B" d="M870.6,288.3c-0.2,11-5.8,18.2-23,18.2H832c-18.3,0-24.4-8.3-24.4-33.9c0-25.6,6.1-33.9,28.6-33.9h13.6
	c9.4,0,16.6,2.5,19.4,7.8c2.7,5,5.9,7.2,10.3,7.2h9.1c2,0,7.8-1.4,7.8-8.5c0-16.8-22.7-28.2-44-28.2h-17.1
	c-37.4,0-56.7,17.4-56.7,55.5s19.2,55.5,52.4,55.5h17.2c33.6,0,50.6-16.3,50.6-44.6v-8.5c0-3.9-3.3-7.2-7.2-7.2h-38.3
	c-3.9,0-7.2,3.3-7.2,7.2v6c0,3.9,3.3,7.2,7.2,7.2H870.6z"/>
<path fill="#48444B" d="M935.1,327.5c3.9,0,7.2-3.3,7.2-7.2v-65.7l42.3,65.7c2.5,3.9,7,7.2,11.1,7.2h25.4c4.1,0,7.2-3.3,7.2-7.2
	v-95.4c0-4.1-3.1-7.2-7.2-7.2h-13.1c-3.9,0-7.2,3.1-7.2,7.1v71.4l-46.2-71.2c-2.3-3.6-6.7-7.2-10.5-7.2h-22.5c-3.9,0-7,3.3-7,7.2
	v95.4c0,3.9,3.3,7.2,7.2,7.2H935.1z"/>
<path fill="#48444B" d="M1144.5,217.7h-88.1c-3.9,0-7.2,3.1-7.2,7.1v95.4c0,4.1,3.1,7.4,7.2,7.4h87.8c4.1,0,7.2-3.3,7.2-7.2v-7.4
	c0-3.9-3.1-7.1-7-7.1H1078v-22.6h57.3c3.9,0,7.2-3.3,7.2-7.2v-7.2c0-3.9-3.3-7.2-7.2-7.2H1078v-22.3h66.5c3.9,0,7.2-3.1,7.2-7.2
	v-7.2C1151.7,220.8,1148.4,217.7,1144.5,217.7z"/>
<path fill="#48444B" d="M1174.2,217.7c-4.1,0-7.2,3.1-7.2,7.2v7.2c0,4.1,3.1,7.2,7.2,7.2h34.1v81.1c0,3.9,3.3,7.1,7.2,7.1h14.4
	c3.9,0,7.2-3.1,7.2-7.1v-81.1h34.1c4.1,0,7.2-3.1,7.2-7.2v-7.2c0-4.1-3.1-7.2-7.2-7.2H1174.2z"/>
<path fill="#48444B" d="M1346.4,236c23.5,0,32.7,13,32.7,36.6c0,23.5-9.2,36.6-32.7,36.6c-23.5,0-32.7-13-32.7-36.6
	C1313.7,249.1,1322.9,236,1346.4,236z M1284.9,272.6c0,40.8,22.4,57.3,61.5,57.3c39.1,0,61.5-16.5,61.5-57.3
	c0-40.8-22.4-57.3-61.5-57.3C1307.3,215.3,1284.9,231.8,1284.9,272.6z"/>
<path fill="#CB3366" d="M382.5,214.5c-4.6,0-8.7,2.4-11.1,6L210.2,427.8v0.1l-0.1-0.1l0,0v-0.2l0,0l-0.1,0.1v-0.1L48.9,220.3
	c-2.4-3.6-6.5-6-11.1-6H14.4v85.4l0,0v-100c0-107.8,87.3-195.2,195-195.2h0.2h1.2h0.2c107.7,0,195,87.4,195,195.2v14.7H382.5z"/>
<path fill="#B2345B" d="M153.6,273.5l52.8,68.1h0.1c0.8,0.9,2,1.5,3.4,1.5l0,0c1.4,0,2.6-0.6,3.4-1.5h0.1l52.8-68.1v81.7l-55.8,71.7
	l-0.3-0.4l0,0v0.1l0,0l-0.3,0.4l-56.3-72.3L153.6,273.5L153.6,273.5z M210.2,427.2L210.2,427.2L210.2,427.2L210.2,427.2L210.2,427.2
	L210.2,427.2L210.2,427.2l-0.3-0.3h0.6L210.2,427.2z"/>
<path fill="#BF3C65" d="M209.9,233.5L158,166.2l51.9-66.7l0.3,0.4l0,0v0.1l0,0l0.3-0.4l51.6,66.3L209.9,233.5z M210.1,99.2
	L210.1,99.2L210.1,99.2L210.1,99.2L210.1,99.2L210.1,99.2L210.1,99.2l0.3,0.4h-0.6L210.1,99.2z"/>
<path fill="#CF406E" d="M210.2,99.9L210.2,99.9L210.2,99.9l-0.3-0.4l0.2-0.3v-0.1l0.1,0.1l0,0l0,0l0.1-0.1v0.1l0.2,0.4L210.2,99.9
	L210.2,99.9z M48.9,219.7c-2.4-3.6-6.5-6-11.1-6H14.4v-13.9c0-72,38.9-134.9,96.9-168.7c32.2,0.8,60.4,17.1,77.7,41.7h0.1l20.8,26.8
	L82.6,263.1L48.9,219.7z M231.3,72.8h0.1C248.7,48.1,276.9,31.8,309,31c58,33.9,96.9,96.8,96.9,168.7v14.1h-23.5
	c-4.6,0-8.7,2.4-11.1,6l-33.7,43.3L210.4,99.6L231.3,72.8z"/>
<path fill="#D8517D" d="M309.7,31.4c1.5,0.9,2.9,1.8,4.4,2.6C312.6,33.2,311.2,32.3,309.7,31.4z M231.4,72.8h-0.1l-20.8,26.8
	l-0.2-0.4v-0.1l-0.1,0.1l0,0l0,0l-0.1-0.1v0.1l-0.2,0.3L189,72.8h-0.1c-17.2-24.6-45.6-40.9-77.7-41.7
	c28.8-16.8,62.3-26.5,98.1-26.5h0.2h1.2h0.2c35.8,0,69.3,9.6,98.1,26.5C276.9,31.8,248.7,48.2,231.4,72.8z M210.3,99.8l0.2-0.2
	l0.2,0.2H210.3z M209.7,99.8l0.2-0.2l0.2,0.2H209.7z M110.6,31.4c-1.5,0.9-2.9,1.8-4.4,2.6C107.7,33.2,109.1,32.3,110.6,31.4z
	 M111.3,31.1L111.3,31.1c-0.2,0.1-0.4,0.2-0.6,0.4C110.8,31.3,111,31.2,111.3,31.1z M309,31.1c0.2,0.1,0.4,0.2,0.6,0.4
	C309.5,31.3,309.3,31.2,309,31.1L309,31.1z"/>
<path fill="#4B3785" d="M14.4,213.8h23.5c4.6,0,8.7,2.4,11.1,6L210.1,427v0.1l0.1-0.1l0,0v0.2l0,0l0.1,0.1v-0.1l161.2-207.4
	c2.4-3.6,6.5-6,11.1-6h23.5v85.8c0,4.6-1.6,8.9-4.2,12.3l0,0l-188,259c0,0-0.9,1.5-3.5,1.5l0,0c0,0,0,0-0.1,0c0,0,0,0-0.1,0l0,0
	c-2.5-0.1-3.5-1.5-3.5-1.5l-188-259l0,0c-2.6-3.4-4.2-7.6-4.2-12.3V213.8z"/>
<path fill="none" d="M401.4,312.5h-18.9c-4.6,0-8.7-2.4-11.1-6l-33.7-43.3l33.7-43.3c2.4-3.6,6.5-6,11.1-6h23.5v85.8
	c0,4.6-1.6,8.9-4.2,12.3l0,0 M48.9,306.5c-2.4,3.6-6.5,6-11.1,6H18.9l7.8,10.8l-8.2-11.2l0,0c-2.6-3.4-4.2-7.6-4.2-12.3v-86h23.5
	c4.6,0,8.7,2.4,11.1,6l33.7,43.4L48.9,306.5z"/>
<path fill="#664C9E" d="M401.4,312.5h-18.9c-4.6,0-8.7-2.4-11.1-6l-33.7-43.3l33.7-43.3c2.4-3.6,6.5-6,11.1-6h23.5v85.8
	c0,4.6-1.6,8.9-4.2,12.3l0,0 M48.9,306.5c-2.4,3.6-6.5,6-11.1,6H18.9l7.8,10.8l-8.2-11.2l0,0c-2.6-3.4-4.2-7.6-4.2-12.3v-86h23.5
	c4.6,0,8.7,2.4,11.1,6l33.7,43.4L48.9,306.5z"/>
<path fill="none" d="M266.1,498.2l-56-71.8l-55.9,71.8H266.1z"/>
<path fill="#42307C" d="M266.4,497.9l-52.7,72.6c0,0-0.9,1.5-3.5,1.5l0,0c0,0,0,0-0.1,0c0,0,0,0-0.1,0l0,0c-2.5-0.1-3.5-1.5-3.5-1.5
	l-52.7-72.6H266.4z"/>
<path fill="#45327E" d="M153.6,354.3l56.6,72.7l-55.9,71.8l-0.6-0.9L153.6,354.3L153.6,354.3z M266.2,498L266.2,498v0.6l-0.1,0.1
	l-55.8-71.7l55.9-71.9L266.2,498L266.2,498z"/>
<path fill="#584094" d="M337.7,400.1V263.2l33.7,43.3c2.4,3.6,6.5,6,11.1,6h18.9L337.7,400.1z M82,399.3l-63-86.8h18.9
	c4.6,0,8.7-2.4,11.1-6L82,263.9L82,399.3L82,399.3z"/>
<path fill="#FFFFFF" d="M362.4,152.8L362.4,152.8l-24.5,36.5h-0.2v213.1c0,1.4-0.6,2.6-1.5,3.4v0.3l-64.7,89.3h-0.1
	c-1.1,1.8-3,3.1-5.3,3.1v-12.2l0,0V273.5l-52.8,68.1h-0.1c-0.8,0.9-2.1,1.5-3.4,1.5l0,0c-1.4,0-2.5-0.6-3.4-1.5h-0.1l-52.8-68.1
	v212.7l0,0v12.2c-2.2,0-4.2-1.2-5.3-3.1h-0.1L83.6,406v-0.3c-0.9-0.8-1.5-2.1-1.5-3.4v-213h-0.2l-24.6-36.5h0.1
	c-0.8-1.1-1.2-2.4-1.2-3.9c0-3.7,2.9-6.8,6.6-6.8l0,0h74v0.1c2,0.2,3.8,1.3,4.8,2.9l68.3,88.4l68.2-88.4c1.1-1.6,2.8-2.6,4.8-2.9
	v-0.1h74l0,0c3.7,0.1,6.6,3.1,6.6,6.8C363.6,150.4,363.2,151.8,362.4,152.8z"/>
</svg>
